HIERARCHY
ROOT joint_Root
{
	OFFSET 0.0 0.0 0.0
	CHANNELS 6 Xposition Yposition Zposition Zrotation Xrotation Yrotation 
	JOINT Hips
	{
		OFFSET -0.726466 93.3139 -2.00062
		CHANNELS 6 Xposition Yposition Zposition Zrotation Xrotation Yrotation 
		JOINT Spine
		{
			OFFSET 15.7357 0.0 0.0
			CHANNELS 6 Xposition Yposition Zposition Zrotation Xrotation Yrotation 
			JOINT Chest
			{
				OFFSET 8.98455 -0.406207 0.0
				CHANNELS 6 Xposition Yposition Zposition Zrotation Xrotation Yrotation 
				JOINT Neck
				{
					OFFSET 16.3773 0.0 0.0
					CHANNELS 6 Xposition Yposition Zposition Zrotation Xrotation Yrotation 
					JOINT Head
					{
						OFFSET 6.45672 0.0 0.0
						CHANNELS 6 Xposition Yposition Zposition Zrotation Xrotation Yrotation 
						End Site
						{
							OFFSET 0.0 0.0 0.0
						}
					}
				}
				JOINT Shoulder_L
				{
					OFFSET 12.9942 -0.242716 4.98039
					CHANNELS 6 Xposition Yposition Zposition Zrotation Xrotation Yrotation 
					JOINT UpperArm_L
					{
						OFFSET 5.34809 0.0 0.0
						CHANNELS 6 Xposition Yposition Zposition Zrotation Xrotation Yrotation 
						JOINT LowerArm_L
						{
							OFFSET 24.3286 1.87007e-05 0.0
							CHANNELS 6 Xposition Yposition Zposition Zrotation Xrotation Yrotation 
							JOINT Hand_L
							{
								OFFSET 22.2916 0.0 0.0
								CHANNELS 6 Xposition Yposition Zposition Zrotation Xrotation Yrotation 
								End Site
								{
									OFFSET 0.0 0.0 0.0
								}
							}
						}
					}
				}
				JOINT Shoulder_R
				{
					OFFSET 12.9945 -0.242716 -4.98039
					CHANNELS 6 Xposition Yposition Zposition Zrotation Xrotation Yrotation 
					JOINT UpperArm_R
					{
						OFFSET -5.34813 0.0 0.0
						CHANNELS 6 Xposition Yposition Zposition Zrotation Xrotation Yrotation 
						JOINT LowerArm_R
						{
							OFFSET -24.3289 0.000322201 0.0
							CHANNELS 6 Xposition Yposition Zposition Zrotation Xrotation Yrotation 
							JOINT Hand_R
							{
								OFFSET -22.2915 -0.000108084 0.0
								CHANNELS 6 Xposition Yposition Zposition Zrotation Xrotation Yrotation 
								End Site
								{
									OFFSET 0.0 0.0 0.0
								}
							}
						}
					}
				}
			}
		}
		JOINT UpperLeg_L
		{
			OFFSET -2.19248 -6.46944 0.0
			CHANNELS 6 Xposition Yposition Zposition Zrotation Xrotation Yrotation 
			JOINT LowerLeg_L
			{
				OFFSET 39.0811 0.0 -1.23785e-05
				CHANNELS 6 Xposition Yposition Zposition Zrotation Xrotation Yrotation 
				JOINT Foot_L
				{
					OFFSET 40.9854 0.0 -1.26872e-05
					CHANNELS 6 Xposition Yposition Zposition Zrotation Xrotation Yrotation 
					JOINT Toes_L
					{
						OFFSET 11.7543 0.0 0.0
						CHANNELS 6 Xposition Yposition Zposition Zrotation Xrotation Yrotation 
						End Site
						{
							OFFSET 0.0 0.0 0.0
						}
					}
				}
			}
		}
		JOINT UpperLeg_R
		{
			OFFSET -2.19251 6.46944 0.0
			CHANNELS 6 Xposition Yposition Zposition Zrotation Xrotation Yrotation 
			JOINT LowerLeg_R
			{
				OFFSET -39.0811 -0.00228153 -0.0401928
				CHANNELS 6 Xposition Yposition Zposition Zrotation Xrotation Yrotation 
				JOINT Foot_R
				{
					OFFSET -40.9854 0.0 0.0
					CHANNELS 6 Xposition Yposition Zposition Zrotation Xrotation Yrotation 
					JOINT Toes_R
					{
						OFFSET -11.7543 0.0 0.0
						CHANNELS 6 Xposition Yposition Zposition Zrotation Xrotation Yrotation 
						End Site
						{
							OFFSET 0.0 0.0 0.0
						}
					}
				}
			}
		}
	}
}
MOTION
Frames:	4
Frame Time:	0.0333333
0.000000 0.000000 0.000000 0.000000 0.000000 -0.000000 -0.278606 92.213700 -0.260213 88.245600 0.667776 5.254980 15.735700 0.000005 -0.000001 83.247300 85.102500 -82.849600 8.984550 -0.406207 -0.000000 1.965700 -1.171130 0.814838 16.377300 -0.000001 -0.000001 2.658510 -2.872360 0.200627 6.456720 -0.000001 -0.000000 5.667540 -3.455770 -0.797563 12.994200 -0.242716 4.980390 -90.012600 0.040600 -72.713500 5.348090 -0.000007 -0.000001 -66.032300 39.811000 -16.476100 24.328600 0.000019 0.000005 1.907350 4.623870 -22.442800 22.291600 -0.000001 0.000005 2.942630 5.458190 -4.935150 12.994500 -0.242716 -4.980390 88.271400 5.683950 -73.053400 -5.348130 -0.000001 -0.000004 -66.258500 37.334500 -15.793600 -24.328900 0.000322 -0.000009 3.176430 9.823000 -18.025000 -22.291500 -0.000108 -0.000004 4.264580 5.321450 -0.532509 -2.192480 -6.469440 -0.000000 -175.589000 -7.942610 -1.677000 39.081100 -0.000007 -0.000012 -0.107219 0.247910 23.388100 40.985400 -0.000006 -0.000013 0.321935 4.612790 -66.691200 11.754300 -0.000000 0.000003 -0.000048 -0.000544 -16.598700 -2.192510 6.469440 -0.000001 178.800000 15.421200 -178.488000 -39.081100 -0.002282 -0.040193 -0.061090 0.179836 19.706100 -40.985400 0.000008 0.000006 2.273920 6.961380 -66.150700 -11.754300 -0.000006 -0.000006 -0.008217 -0.089798 -20.230000
0.000000 0.000000 0.000000 0.000000 0.000000 -0.000000 -0.273006 92.211200 -0.334254 88.220900 0.732667 5.369100 15.735700 0.000005 -0.000001 83.129600 85.017600 -82.722600 8.984550 -0.406207 -0.000000 2.132130 -1.211200 0.835702 16.377300 -0.000001 -0.000001 2.475940 -2.879280 0.170142 6.456720 -0.000001 -0.000000 5.541950 -3.428980 -0.804826 12.994200 -0.242716 4.980390 -90.167200 0.543675 -72.906800 5.348090 -0.000007 -0.000001 -62.480800 40.100100 -18.432200 24.328600 0.000019 0.000005 3.938570 7.997480 -26.323800 22.291600 -0.000001 0.000005 2.191750 5.458770 -4.955950 12.994500 -0.242716 -4.980390 88.306200 5.617250 -73.189700 -5.348130 -0.000001 -0.000004 -66.626200 32.637500 -16.070200 -24.328900 0.000322 -0.000009 2.833770 7.770410 -20.117400 -22.291500 -0.000108 -0.000004 -2.050770 5.271210 0.878200 -2.192480 -6.469440 -0.000000 -175.571000 -7.838570 -1.662350 39.081100 -0.000007 -0.000012 -0.106504 0.245326 23.467200 40.985400 -0.000006 -0.000013 0.326000 4.587730 -66.677700 11.754300 -0.000000 0.000003 -0.000063 -0.000691 -16.604300 -2.192510 6.469440 -0.000001 178.850000 15.389800 -178.476000 -39.081100 -0.002282 -0.040193 -0.056357 0.165909 19.784000 -40.985400 0.000008 0.000006 2.330730 6.816030 -66.137900 -11.754300 -0.000006 -0.000006 -0.008457 -0.091719 -20.308400
0.000000 0.000000 0.000000 0.000000 0.000000 -0.000000 -0.284911 92.217100 -0.494752 88.270700 0.651271 5.584160 15.735700 0.000005 -0.000001 83.179300 84.912800 -82.796600 8.984550 -0.406207 -0.000000 2.341090 -1.225540 0.789563 16.377300 -0.000001 -0.000001 2.695470 -2.855220 0.130076 6.456720 -0.000001 -0.000000 5.045940 -3.351340 -0.699826 12.994200 -0.242716 4.980390 -90.267500 0.867822 -72.865600 5.348090 -0.000007 -0.000001 -57.472700 38.507000 -21.587300 24.328600 0.000019 0.000005 5.671890 9.172610 -31.923600 22.291600 -0.000001 0.000005 4.463900 5.483270 -5.868730 12.994500 -0.242716 -4.980390 88.269000 5.662170 -72.970400 -5.348130 -0.000001 -0.000004 -65.043200 28.036700 -18.696300 -24.328900 0.000322 -0.000009 1.908020 4.465830 -23.181600 -22.291500 -0.000108 -0.000004 -8.655610 5.211290 2.441290 -2.192480 -6.469440 -0.000000 -175.583000 -7.949790 -1.548850 39.081100 -0.000007 -0.000012 -0.108014 0.248786 23.468800 40.985400 -0.000006 -0.000013 0.332217 4.621200 -66.568800 11.754300 -0.000000 0.000003 -0.000057 -0.000631 -16.602000 -2.192510 6.469440 -0.000001 178.841000 15.115300 -178.466000 -39.081100 -0.002282 -0.040193 -0.053399 0.156316 19.943700 -40.985400 0.000008 0.000006 2.467270 6.591740 -66.119400 -11.754300 -0.000006 -0.000006 -0.008075 -0.088646 -20.182900
0.000000 0.000000 0.000000 0.000000 0.000000 -0.000000 -0.295785 92.214800 -0.687490 88.259100 0.513472 5.762420 15.735700 0.000005 -0.000001 83.151300 84.872900 -82.780000 8.984550 -0.406207 -0.000000 2.419610 -1.239140 0.768189 16.377300 -0.000001 -0.000001 3.253270 -2.811950 0.030150 6.456720 -0.000001 -0.000000 4.833940 -3.318020 -0.571171 12.994200 -0.242716 4.980390 -90.258500 0.830005 -72.699500 5.348090 -0.000007 -0.000001 -53.055300 33.186600 -25.145400 24.328600 0.000019 0.000005 5.916180 7.629360 -37.975900 22.291600 -0.000001 0.000005 6.985720 5.513050 -7.063970 12.994500 -0.242716 -4.980390 88.275300 5.580090 -72.794000 -5.348130 -0.000001 -0.000004 -62.102600 23.910900 -22.968200 -24.328900 0.000322 -0.000009 1.812880 3.361130 -28.374900 -22.291500 -0.000108 -0.000004 -8.534050 5.196660 2.806380 -2.192480 -6.469440 -0.000000 -175.563000 -7.973700 -1.546430 39.081100 -0.000007 -0.000012 -0.106303 0.243474 23.586700 40.985400 -0.000006 -0.000013 0.320783 4.530830 -66.503000 11.754300 -0.000000 0.000003 -0.000056 -0.000622 -16.601700 -2.192510 6.469440 -0.000001 178.853000 15.010300 -178.525000 -39.081100 -0.002282 -0.040193 -0.055256 0.160077 20.099200 -40.985400 0.000008 0.000006 2.413130 6.603650 -66.030600 -11.754300 -0.000006 -0.000006 -0.008027 -0.088249 -20.166700
